<svg id="Layer_1" data-name="Layer 1" xmlns="http://www.w3.org/2000/svg" xmlns:xlink="http://www.w3.org/1999/xlink" viewBox="0 0 77.82708 81.44729"><defs><style>.cls-1,.cls-10,.cls-11,.cls-12,.cls-13,.cls-14,.cls-15,.cls-16,.cls-18,.cls-19,.cls-3,.cls-4,.cls-5,.cls-6,.cls-7,.cls-8,.cls-9{fill:none;}.cls-2{clip-path:url(#clip-path);}.cls-10,.cls-11,.cls-12,.cls-13,.cls-14,.cls-15,.cls-18,.cls-19,.cls-3,.cls-4,.cls-5,.cls-6,.cls-7,.cls-8,.cls-9{stroke:#231f20;}.cls-10,.cls-11,.cls-12,.cls-13,.cls-14,.cls-15,.cls-3,.cls-5,.cls-6,.cls-7,.cls-8,.cls-9{stroke-linecap:round;}.cls-16,.cls-17,.cls-18,.cls-3{stroke-linejoin:round;}.cls-3{stroke-width:0.66259px;}.cls-10,.cls-11,.cls-12,.cls-13,.cls-14,.cls-15,.cls-19,.cls-4,.cls-5,.cls-6,.cls-7,.cls-8,.cls-9{stroke-miterlimit:10;}.cls-4{stroke-width:0.49694px;}.cls-5{stroke-width:0.47381px;}.cls-6{stroke-width:0.47381px;}.cls-7{stroke-width:0.47321px;}.cls-8{stroke-width:0.47224px;}.cls-9{stroke-width:0.47348px;}.cls-10{stroke-width:0.47381px;}.cls-11{stroke-width:0.47381px;}.cls-12{stroke-width:0.47381px;}.cls-13{stroke-width:0.47381px;}.cls-14{stroke-width:0.48408px;}.cls-15{stroke-width:0.47349px;}.cls-16{stroke:#000;stroke-width:0.33129px;}.cls-17{stroke:#fff;stroke-width:0.14157px;}.cls-18{stroke-width:0.77324px;}.cls-19{stroke-width:0.59263px;}.cls-20{fill:#231f20;}</style><clipPath id="clip-path" transform="translate(2.24922)"><circle class="cls-1" cx="36.68346" cy="34.31033" r="33.92371"/></clipPath></defs><g class="cls-2"><polygon class="cls-3" points="47.285 6.424 40.705 6.424 34.125 6.424 34.125 9.715 34.125 13.005 40.705 13.005 47.285 13.005 47.285 9.715 47.285 6.424"/><polygon class="cls-3" points="37.415 19.585 43.995 16.295 43.995 19.585 43.995 22.875 37.415 19.585"/><polyline class="cls-3" points="43.995 19.585 50.575 19.585 50.575 9.715 47.285 9.715"/><circle class="cls-3" cx="27.54446" cy="9.71462" r="3.29012"/><polyline class="cls-3" points="27.544 13.005 27.544 19.585 37.415 19.585"/><line class="cls-3" x1="30.83458" y1="9.71462" x2="34.1247" y2="9.71462"/><line class="cls-3" x1="20.96422" y1="9.71462" x2="24.25434" y2="9.71462"/><line class="cls-3" x1="53.86541" y1="9.71462" x2="47.28517" y2="9.71462"/><path class="cls-4" d="M23.81513,68.44226c2.50792-6.45664,1.72814-9.79212.43756-11.65549-1.33839-1.93239-2.85824-1.95519-5.11026-4.75134a13.9165,13.9165,0,0,1-2.893-7.14439c-.29149-2.92072.52356-5.06533,1.77717-8.24554a42.67668,42.67668,0,0,1,5.69524-10.09874" transform="translate(2.24922)"/><path class="cls-4" d="M25.99783,70.61386A14.85707,14.85707,0,0,1,21.439,62.05962c-.31082-2.57984.465-3.33785.61489-7.192a27.696,27.696,0,0,0-1.52281-10.71937,21.109,21.109,0,0,0-6.01781-9.058c-6.54877-5.52247-14.9808-4.378-16.62152-4.12313" transform="translate(2.24922)"/><line class="cls-4" x1="23.73942" y1="59.45451" x2="27.49815" y2="59.18371"/><line class="cls-4" x1="24.21182" y1="57.04821" x2="26.50191" y2="56.78677"/><line class="cls-4" x1="24.42075" y1="52.82264" x2="23.37252" y2="53.77654"/><line class="cls-4" x1="21.54209" y1="51.86235" x2="24.183" y2="50.04973"/><line class="cls-4" x1="19.50665" y1="48.98892" x2="23.57525" y2="46.72064"/><line class="cls-4" x1="18.72236" y1="46.33009" x2="22.71303" y2="44.47151"/><line class="cls-4" x1="18.5312" y1="43.16049" x2="21.70659" y2="42.07309"/><line class="cls-4" x1="19.10536" y1="40.22938" x2="20.72959" y2="40.02644"/><line class="cls-4" x1="19.17097" y1="37.23919" x2="20.44031" y2="36.16691"/><line class="cls-5" x1="16.81048" y1="34.9585" x2="17.9967" y2="33.36349"/><line class="cls-6" x1="14.6501" y1="33.42629" x2="15.69591" y2="31.73589"/><line class="cls-7" x1="13.23111" y1="30.36677" x2="12.30001" y2="32.12297"/><line class="cls-8" x1="6.95878" y1="28.71621" x2="6.71922" y2="30.68291"/><line class="cls-9" x1="3.59556" y1="28.53419" x2="3.57689" y2="30.52186"/><line class="cls-10" x1="19.54438" y1="33.17921" x2="21.23196" y2="34.22958"/><line class="cls-11" x1="20.60945" y1="30.81492" x2="22.33626" y2="31.79945"/><line class="cls-12" x1="21.89612" y1="28.73999" x2="23.54846" y2="29.84496"/><line class="cls-13" x1="23.13029" y1="26.75139" x2="24.71828" y2="27.947"/><line class="cls-14" x1="9.76133" y1="31.3025" x2="10.27713" y2="29.38283"/><line class="cls-15" x1="0.23674" y1="28.77392" x2="0.43651" y2="30.9227"/><line class="cls-4" x1="23.85656" y1="62.47128" x2="27.63846" y2="62.06981"/><line class="cls-4" x1="24.69229" y1="65.31377" x2="27.25481" y2="64.90033"/><path d="M50.34246,61.31056l-.52106-.01979-.51382-.05145-.50523-.08838L48.305,61.0243l-.48875-.16358-.47951-.20315-.46962-.24668-.45906-.29285-.44654-.34562-.43268-.4063-.41553-.47621-.29879-.4129-.2856-.47357-.22491-.44983-.23613-.58835-.17875-.57647-.13191-.56459-.09432-.554-.064-.54481-.05079-.80336-.00989-.79413.03034-1.03158.0963-1.56188.17347-2.05128.16225-1.53154.19919-1.52362.8403-5.28849.23349-1.25451.22558-.99728.20249-.74268.23811-.73543.281-.72554.215-.48017.368-.70574.27307-.45181.31857-.47094.345-.44983.3819-.44126.42476-.43.33375-.30275.39772-.32319.55669-.39443.6101-.36277.59362-.29153.57977-.23283.529-.16951.54943-.13653.593-.10356.53821-.05672.5303-.01847.52173.01451.51381.04749.50655.07981.49864.10949.00924.002.48215.13653.48479.16753.47753.1959.461.219.8159.45906.56394.36937.58174.42938.73345.60285,2.422,2.24124.43664.36013.523.38058.45445.27834.44785.22624.45709.188.46566.15237.4749.12532.72685.1451,2.478.35947.746.13851.73807.18205.48874.15434.47754.18468.47753.22294.45709.26515.46038.32715.43862.39047.21634.23085.20645.25459.19919.28362.19.32187.1794.372.16292.434.09234.32319.10619.562.04551.54877-.00527.53557-.04947.525-.08641.51447-.122.50523-.1517.496-.17875.48809-.372.82579-.31857.60153-.42213.69124-.4716.682-.51975.66881-.57119.65562-.62462.64375-.68728.62924-.40762.339-.62264.47357-.57383.39311-.62132.37992-.64111.34957-.58768.28626-.86536.36277-.8502.29944-.70706.21371-2.87774.75719-.55008.18073-.525.2071-.36013.17017-.53491.30077-.374.24932-.5092.39179-.34627.30077-1.8521,1.77426-.70574.62264-.40564.32583-.62792.45511-.6134.38651-.60022.32451-.51447.23877-.64638.24932-.56526.17412-.556.1306-.54613.09234-.53822.05277Zm4.01748-31.11751-.50853.01781-.51579.05408-.57053.0996-.52767.13125-.50721.16226-.55668.2236L50.603,31.162l-.58768.34957-.53689.38058-.3819.31066-.31989.29021-.41092.4162-.3687.42608-.33309.434-.308.45577-.26317.43532-.35881.68794-.20777.46368-.27438.70905-.23283.71894-.19854.72817-.22227.98409-.23152,1.244-.3687,2.25839-.47028,3.01954-.19787,1.51571-.1616,1.52494-.17281,2.04469-.09563,1.55264-.03034,1.01839.00989.7783.04947.78621.062.52766.09168.5369.12664.54349.17083.55141.22623.56327.21305.42609.27174.45115.28164.39047.39443.45247.40959.38387.42279.32583.43466.277.44522.23349.45511.19259.46434.15566.47357.12.4815.08442.49072.05013.49864.01847.50721-.01847.51645-.05013.52437-.08838.53425-.12532.54349-.16753.62594-.24141.49535-.22953.58108-.314.59494-.376.61275-.44455.3931-.31528.69454-.61209,1.85407-1.7769.35947-.31132.52568-.405.39377-.26383.556-.31264.38058-.1794.54415-.2137.56657-.186.83305-.23085,2.05062-.529.69322-.20842.83436-.29418.84822-.35617.57251-.27834.62726-.34166.60681-.372.56-.38387.61011-.463.3964-.32978.67475-.61737.61143-.62923.55932-.64243.50853-.65562.46105-.66617.41157-.67409.47028-.91813.19985-.467.17281-.47226.14643-.47885.11674-.48413.08245-.49073.04749-.49864.00527-.50655-.04287-.51711-.10091-.5303-.08443-.29549-.15236-.40762L74.7,40.26346l-.17677-.29812-.18534-.26383-.38981-.4472-.41356-.36936-.43334-.30736-.43136-.24932-.45379-.21239-.45709-.17676-.469-.14775-.71828-.17808-.73016-.13588-2.48-.35881-.74532-.14906-.494-.12994L65.6354,36.68l-.48017-.19788L64.6843,36.244l-.47754-.29219-.54217-.39376-.44983-.37135-.52437-.47423-1.89892-1.76833-.71893-.591-.5679-.41883-.88119-.55932-.45907-.24536-.44521-.21173-.46039-.18929-.467-.16094-.4683-.13192-.48413-.10685-.48611-.07651-.4927-.04551Z" transform="translate(2.24922)"/><path d="M50.6927,58.75667l-.525-.03034-.51249-.08706-.4993-.14775-.48545-.20974L48.20807,58.01l-.24009-.17676-.2447-.21107-.33111-.34825-.25657-.33111-.20249-.32056-.1616-.30868-.20051-.48545-.12466-.3997-.12268-.56592-.06991-.5514-.02507-.39839L46.22736,53.24l.05079-.78094.093-.77171.58768-3.52214.12862-1.00783.097-1.01707.28823-4.88614.0996-1.0263.10289-.76511.13654-.75851.17742-.7506.14643-.49732.17083-.49007.19985-.48347.23085-.47753.26713-.46962.3067-.461.3542-.4505.40761-.438.23086-.21635.51183-.41157.29615-.20183.32121-.19194.61143-.29615.57515-.20579.562-.13917.54811-.08047.53623-.02836.525.01979.51315.064.50391.10553.49337.14577.48413.18468.47423.22294.00726.00329.12861.0686.556.32913.45181.3133.44191.34825.432.38256.52634.52238.51711.57054,1.40621,1.68587.405.43269.4129.376.42543.31264.43664.24668.41355.17676.50062.1583.47489.10817.48611.08047,3.00305.3166.74994.13191.49666.12268.48941.15566.48149.20052.4716.25723.368.25987.312.27571.21634.23744.20513.27307.19392.32583.17544.401.14841.53558.06134.44719.01253.27966-.00462.26911-.05408.5237L72.50424,44.8l-.14775.5026-.18666.49073-.22228.48017-.25525.47225-.28824.463-.31923.45642-.35222.4472-.38585.43927-.42345.43005-.4584.41685-.51447.4129-.44192.31659-.61275.38388-.59823.32187-.58637.26515-.49336.19-.47028.15434-.51842.14247-.76116.16093-.8093.11345-.79677.06464-2.34017.08311-.81656.10421-.49138.13455-.26515.11081-.27966.1517-.29154.20447-.29219.2612-.35485.39178-1.7802,2.46682-.368.44192-.405.43532-.45247.42477-.51513.41157-.38453.26119-.55933.31792-.63847.27966-.56789.17809-.28362.066-.51249.07915Zm3.5749-26.01106-.50589.027-.51711.07585-.5303.13126-.54679.19589-.57317.27835-.58241.37068-.49138.39508-.21305.19986-.39113.41949-.3377.42938-.29285.4406-.25592.45049-.22161.45906-.1926.46567-.1649.47357-.1418.48149-.17347.73213-.13324.74269-.10091.75191-.09828,1.01443-.08443,1.27958-.2038,3.60525-.09828,1.02894-.12994,1.01838L46.699,51.73482l-.091.75456-.04947.76115.00132.65166.02374.37728.06662.52766.11675.53821.11542.37069.18864.45774.14906.28362.18732.29549.23613.306.308.32452.43927.35089.43.25328.44785.19391.4617.13588.47556.08046.48874.029.53558-.02639.742-.13587.54416-.17149L53.114,57.832l.53624-.30473.36276-.24668.49469-.39574.43466-.40894.39113-.41949.35683-.42741.4927-.65957,1.28947-1.80988L57.8524,52.74l.31989-.28626.3232-.22689.31132-.16886.30011-.124.52766-.1451.32583-.05541.53689-.0554,2.34612-.08443.779-.062.78819-.11081.74071-.157.50127-.13719.45445-.14906.47622-.18336.56723-.25724.57911-.31132.59494-.372.42609-.306.49929-.401.4439-.40366.41026-.41685L70.478,47.9l.341-.43268.30868-.4406.27833-.44719.24537-.45511.21305-.46038.17808-.4683.14049-.47622.09828-.48412.05079-.49337.004-.24536-.01121-.2546-.07717-.51447-.11345-.38519-.15895-.36277-.17479-.29285-.18534-.24668-.19392-.21238-.28494-.252-.3377-.23877-.43994-.23877-.45247-.18732-.465-.14774-.47489-.11741-.73015-.12795-.74071-.08971-2.25773-.22689-.50655-.08443-.49733-.11344-.529-.16754-.44521-.19127L62.79,38.77942l-.45511-.33375-.436-.39574-.42015-.44852-1.40819-1.68917-.50656-.55866-.51315-.50986-.41817-.37-.42675-.33638-.43334-.30077-.65826-.38124-.45906-.21634-.46039-.17544-.4683-.13851-.47753-.10026-.48545-.06068Z" transform="translate(2.24922)"/><polyline class="cls-16" points="70.822 42.797 70.596 42.667 70.365 42.558 69.889 42.396 69.399 42.292 68.898 42.234 68.389 42.212 67.872 42.223 67.324 42.262 66.552 42.365 65.742 42.527 65.194 42.671 64.636 42.854 64.351 42.968 64.062 43.104 63.764 43.278 63.448 43.525 63.307 43.66 63.14 43.882 63.013 44.113 62.917 44.351 62.85 44.596 62.805 44.847 62.77 45.361 62.794 45.889 62.882 46.431 62.953 46.709 63.106 47.139 63.167 47.282 63.325 47.581 63.535 47.892 63.825 48.221 64.083 48.447 64.302 48.607 64.527 48.742 64.757 48.858 65.229 49.037 65.716 49.152 66.217 49.208 66.732 49.209 67.26 49.151 67.802 49.034 68.079 48.952 68.646 48.729 68.936 48.588 69.233 48.422 69.536 48.228 70.019 47.861 70.252 47.655 70.663 47.23 71.011 46.791 71.3 46.337 71.528 45.869 71.695 45.386 71.751 45.138 71.788 44.886 71.802 44.628 71.771 44.222 71.747 44.093 71.63 43.732 71.45 43.404 71.252 43.155 71.042 42.959 70.822 42.797"/><circle cx="55.21191" cy="39.17101" r="0.99388"/><path d="M63.3348,47.45813a.9247.9247,0,0,0,.69849,1.10281.93748.93748,0,0,0,.69652-.12136.90657.90657,0,0,0,.40588-.96249c-.01814.00091-.03421.0127-.05235.0127a1.05243,1.05243,0,0,1-.59758-.18468,1.04111,1.04111,0,0,1-.38626-.52948.90075.90075,0,0,0-.3584.10471A.91191.91191,0,0,0,63.3348,47.45813Z" transform="translate(2.24922)"/><path d="M65.60506,45.66276a.922.922,0,0,0-.51908-.16094.86428.86428,0,0,0-.17347.01715.92331.92331,0,0,0-.3476,1.67.9235.9235,0,0,0,1.04015-1.52626Z" transform="translate(2.24922)"/><circle class="cls-17" cx="72.76193" cy="42.33996" r="0.99388"/><path d="M52.99924,53.87449l.10883-.36277.03561-.23745a.20375.20375,0,0,0,.00528-.04089l.00132-.277-.03364-.28758-.0554-.2414-.15369-.36673-.248-.35881-.23283-.21766-.25327-.16225-.23613-.09234a.14977.14977,0,0,0-.03364-.00924l-.24734-.03957c-.01253-.00132-.03826-.00132-.05277-.00132l-.28428.02638-.30934.09894-.32517.19787-.27438.25855-.08971.10158-.25129.38255-.12269.248-.09695.2546-.07058.26383-.04155.26911-.00915.22747a1.04947,1.04947,0,0,1,.25319-.24066c.03034-.01921.06629-.02235.09795-.03834l.02275-.149.06135-.22953.08574-.22426.10949-.2203.219-.33506.27966-.281.27306-.17281.25064-.08839.22228-.0211.23019.03693.128.05013.25987.14775.1926.1794.17743.25064.13851.30868.06068.24273.02968.24932-.00132.23613-.0343.23349-.06068.22689-.20974.43268-.15171.20843-.33374.30456a1.01243,1.01243,0,0,1,.159.00412,1.0496,1.0496,0,0,1,.23349.10273l.13125-.12647.23943-.314.14049-.248Z" transform="translate(2.24922)"/><path d="M49.22448,42.4836l.10289.81392.14049.82183L49.7467,45.477a1.05287,1.05287,0,0,1,.35625.15895l-.30926-1.57729-.13851-.81-.10157-.79941-.06-.78885-.01847-.77962.01187-.50919.06068-.75984.0686-.496.09629-.4894.124-.4815.15632-.47225.19061-.46434.23217-.45247.27571-.44126.3311-.42675.3852-.39838.248-.21238.2541-.18782a1.0324,1.0324,0,0,1-.042-.3654l-.14082.08887-.277.20513-.26845.23019-.40828.42279-.35287.45379-.29219.467-.2447.47819-.20052.48809-.16357.49468-.12928.50128-.10025.50788-.07124.51447-.062.7783-.01253.52634.01913.79677Z" transform="translate(2.24922)"/><path d="M51.723,56.69748a1.03619,1.03619,0,0,1-.30274-.135l-.05541.01229-.49006.02242-.23613-.01979-.23349-.04089-.22492-.06068-.22161-.08443-.21634-.10817-.41092-.29417-.13785-.13323-.24207-.29286-.17544-.28889-.12862-.28758-.157-.53161-.04353-.25856-.03892-.492.01715-.52371.06068-.496.097-.48808.12664-.48018.23745-.715.903-2.141.186-.492.1451-.50919.08311-.52634.00173-.10084a1.0574,1.0574,0,0,1-.18905.18,1.04331,1.04331,0,0,1-.17116.07717l-.04716.29747-.13653.47621L48.63746,50.884l-.24537.7374-.13191.50128-.10092.51052-.064.52238-.01781.55668.0409.52371.04881.29021.13653.48545.1794.41553.19854.32715.26778.32583.16424.1583.29219.2269.41883.22821.252.0963.25526.06991.26317.04617.27108.02243.43467-.01451.38915-.062.29219-.07651.23258-.08822a1.05034,1.05034,0,0,1-.25765.03677A1.01231,1.01231,0,0,1,51.723,56.69748Z" transform="translate(2.24922)"/><path d="M70.83683,43.67216l-.14973-.55009-.18468-.38124-.20381-.29812-.2203-.24537-.35089-.29549-.341-.21766-.48083-.22425-.49139-.16358-.49864-.11608-.50589-.08047-.51052-.05013-.771-.03957L63.567,41.00483l-.49468-.029-.48611-.066-.23349-.05013-.44785-.14774-.21238-.10685-.20975-.1372-.20051-.16225-.1959-.20315-.20974-.26515-.20183-.30077-1.05466-1.87452-.37992-.60285-.43466-.59626-.37-.436-.42411-.4307-.43862-.37728-.45115-.32583-.45049-.26976-.01451-.00792-.47688-.22492-.49006-.17676-.50326-.124-.51711-.06992-.52568-.01253-.27636.01913-.20109.03207a.47857.47857,0,0,1,.20232.30258l.035-.00552.24669-.01715.4927.01121.48083.0653.46962.11542.45907.16556.45576.21568.43137.25723.42806.30935.41751.35947.4063.41223.3542.41751.42081.57779.3687.58571.70311,1.26638.35551.61473.215.32055.22821.28758.221.22821.22822.186.24008.157.24536.12268.248.095.252.07256.76841.12268.51711.03166,2.56179.00527.75522.03826.4927.04881.48479.07651.47226.10949.4584.153.4472.20843.215.13059.403.32715.19.21107.17808.25987.16292.33638.11147.372.058.50523-.00264.248-.058.48017-.1207.47622-.17281.46566-.219.45643-.26383.44719-.30736.43664-.35222.4274-.40036.41554-.45445.405-.36475.281-.43927.29549L66.948,49.21l-.56657.26911-.55141.20711-.53887.153-.52833.10553-.48017.06068-.54283.02375-.49534-.01583-.492-.05145-.47952-.0897-.47028-.12664-.46038-.16621-.44917-.20843-.436-.2546-.42279-.31528-.4096-.38651-.29153-.3311-.88647-1.20967-.21436-.244-.20513-.19-.26581-.18864-.25526-.12268-.26449-.07783-.27042-.03826L56.6955,46.011l-.28362.03166-.28427.06463-.29549.09366-.30077.13192-.312.17545-.32649.23481-.29219.277-.18534.2414-.13983.2546-.095.26647-.04881.2757-.00792.281.03034.28362.05871.29153.35485,1.12392.16028.54877.1108.53689.06135.76907-.02375.49864-.07255.48941-.11741.47885-.16093.4683-.20843.45643-.25921.44719-.42213.55536-.27637.28758-.36425.29681c-.00132.00659.001.01319-.00049.01978a1.05756,1.05756,0,0,1-.45577.65364l.219-.11146.31264-.19788.27175-.20579.24536-.215.29615-.30868.29021-.36013.16292-.23613.27372-.47357.22162-.48545.17149-.49732.12466-.50788.07717-.52106.02572-.53294-.029-.54085-.153-.84294-.51579-1.67664-.05211-.25856-.027-.24536.00594-.23349.03891-.22426.07651-.21634.11477-.20974.15434-.20183.2579-.24405.29351-.20974.2823-.1583.26976-.11873.26581-.08442.252-.058.2447-.02639h.23481l.22426.03034.215.06332.20645.09894.22623.16094.17743.16489.19325.2203.88714,1.20966.31132.35354.43466.40893.45247.33771.46566.27306.47687.22162.48743.17545.496.13323.50458.095.5171.05409.52041.01714.56856-.02506.50523-.06332.55273-.11081.56459-.15962.57779-.21766.591-.281.46566-.2691.45775-.30737.38256-.29417.47291-.42213.41817-.434.36805-.44719.32187-.45775.27768-.47093.23151-.48281.184-.496.12927-.50787.06464-.5303.00264-.27834Z" transform="translate(2.24922)"/><path d="M58.75693,38.768l-.18757-.50433-.25064-.51843-.23415-.3997-.34957-.48809-.45973-.50985-.42345-.3687-.43268-.30011-.22623-.1306-.01452-.00791-.48346-.219-.50062-.155-.51184-.08707-.26514-.01649-.30209.0033-.19623.01839a1.03845,1.03845,0,0,1-.20768.37389l.20274-.04138.494-.02309.23547.01385.47292.08047.46038.14247.45709.20842.61472.40037.39773.34694.23481.246.19259.22821.33309.46434.21964.376.23877.49336.10619.286a.98911.98911,0,0,1,.19853.00553A1.04539,1.04539,0,0,1,58.75693,38.768Z" transform="translate(2.24922)"/><path d="M51.38525,36.51509l-.22821.31066-.28032.47358-.2203.48545-.16951.49864-.12334.50655-.08179.51579-.04353.5237-.00594.53294.035.54217.07783.55273.12532.562.08442.29021.155.42213.24009.48281.20315.31924.13258.17808.21832.23217.23217.19788.24008.153.2513.12.25724.08443.26251.05276.27306.02507.5402-.01979.54876-.091.55537-.13851.562-.17413.84887-.30473.70509-.28625.7374-.35749.33045-.1926L58.167,42.787l.23019-.19788.20645-.23349.16423-.24536.12136-.25328.08641-.25723.05936-.26251.03628-.27043.01583-.5369-.00536-.06422a1.057,1.057,0,0,1-.32979.228l-.01047.34537-.03232.23876-.05211.23217-.07387.22162-.10157.21371-.13851.2071-.17677.19919-.20249.17281-.29483.20975-.30671.1794-.71564.34694-.68925.27966-.83569.29945-.54613.16885-.53359.13324-.51381.08574-.49732.01847-.23481-.02111L52.56985,44.18l-.21766-.07123-.2137-.1029-.20447-.12927-.20051-.17149-.19326-.20579-.30208-.4472-.22426-.45115-.14445-.39442-.19853-.80732-.07387-.52767-.03364-.51842.00528-.5092.04155-.49864.07783-.4894.11674-.47885.15962-.46962.20579-.45511.26251-.44324.20843-.28493.31066-.34562.221-.19721.24932-.19.27364-.17075-.01839-.00206a1.04953,1.04953,0,0,1-.35131-.15706l-.09126.0568-.27241.20777-.24338.21832Z" transform="translate(2.24922)"/><path d="M52.7077,35.68007a.92127.92127,0,0,0,1.10281-.69849v-.00066a.9217.9217,0,0,0-.69783-1.10216.93307.93307,0,0,0-.20381-.02308.92405.92405,0,0,0-.7783,1.41809A.914.914,0,0,0,52.7077,35.68007Z" transform="translate(2.24922)"/><path d="M49.30429,47.41328a.92346.92346,0,0,0,.405-1.802.99157.99157,0,0,0-.20513-.02242.92357.92357,0,0,0-.19985,1.82439Z" transform="translate(2.24922)"/><path d="M51.45187,54.36785A.92414.92414,0,0,0,50.754,53.265a.97438.97438,0,0,0-.20381-.02243.9242.9242,0,0,0-.20051,1.82571.9446.9446,0,0,0,.69585-.12136A.918.918,0,0,0,51.45187,54.36785Z" transform="translate(2.24922)"/><path d="M51.7533,56.56028a.92909.92909,0,0,0,1.10281-.70047.92392.92392,0,0,0-.69849-1.10281.97437.97437,0,0,0-.20381-.02242.92417.92417,0,0,0-.20051,1.8257Z" transform="translate(2.24922)"/><path d="M59.23817,39.92576a.9239.9239,0,0,0-.69849-1.10281.9805.9805,0,0,0-.20447-.02243.92348.92348,0,0,0-.19985,1.82439A.931.931,0,0,0,59.23817,39.92576Z" transform="translate(2.24922)"/></g><circle class="cls-18" cx="38.93268" cy="34.31033" r="33.92371"/><polygon class="cls-1" points="67.914 17.234 38.733 67.777 9.552 17.234 67.914 17.234"/><path class="cls-19" d="M36.68346,34.31033" transform="translate(2.24922)"/><line class="cls-19" x1="67.91366" y1="17.2341" x2="43.84574" y2="31.41545"/><path class="cls-19" d="M36.68346,34.31033" transform="translate(2.24922)"/><line class="cls-19" x1="9.55226" y1="17.2341" x2="32.02832" y2="30.29744"/><line class="cls-19" x1="38.93268" y1="40.54827" x2="38.93268" y2="68.20711"/><path class="cls-20" d="M44.17641,24.20145H29.83012a3.59922,3.59922,0,0,0-3.59923,3.59923V42.147a3.59924,3.59924,0,0,0,3.59923,3.59931H44.17641A3.59932,3.59932,0,0,0,47.77572,42.147V27.80068A3.5993,3.5993,0,0,0,44.17641,24.20145Zm-.26276,18.61771a1.5952,1.5952,0,0,1-.03323.35749.47682.47682,0,0,1-.19919.26433.80535.80535,0,0,1-.48314.12268h-5.282a1.28176,1.28176,0,0,1-.34306-.03686.46944.46944,0,0,1-.24347-.2029.8184.8184,0,0,1-.11435-.46838V38.04176a8.48966,8.48966,0,0,1-1.40886.125,8.33174,8.33174,0,0,1-1.64309-.15129,5.56122,5.56122,0,0,1-1.48446-.53483,3.9656,3.9656,0,0,1-1.23761-.99571,4.69591,4.69591,0,0,1-.81408-1.612,7.77174,7.77174,0,0,1-.30943-2.298q0-5.56974,5.5064-5.56971h.01467a7.04376,7.04376,0,0,1,3.00775.63435q.34629.14778.34645.31734,0,.0883-.21313,1.313a.85416.85416,0,0,1-.17644.4354l-.07362.01468a1.19977,1.19977,0,0,1-.3382-.22492q-.235-.19539-.50119-.4058a2.66041,2.66041,0,0,0-.81664-.38726,4.0337,4.0337,0,0,0-1.238-.17718,3.8703,3.8703,0,0,0-1.47572.25831,2.7219,2.7219,0,0,0-.98648.6454,2.84185,2.84185,0,0,0-.5669.959,5.01228,5.01228,0,0,0-.276,1.09185,9.166,9.166,0,0,0-.06629,1.1545q0,4.01337,3.40844,4.01312a8.85116,8.85116,0,0,0,1.34241-.14956V34.38961H36.17682a.41349.41349,0,0,1-.24833-.05887.37763.37763,0,0,1-.09276-.27307v-.75249a.41327.41327,0,0,1,.05549-.24347.23525.23525,0,0,1,.12169-.09217.85007.85007,0,0,1,.20661-.01831h2.84014a.39523.39523,0,0,1,.23588.0775.34068.34068,0,0,1,.06654.24693V42.0219q.57531,0,1.51958-.02226.94434-.022,1.63764-.03669.6933-.01485.7304-.01493.66411,0,.66395.6999Z" transform="translate(2.24922)"/><path class="cls-20" d="M5.46045,74.74123a.48517.48517,0,0,1-.4541-.39551,1.69532,1.69532,0,0,0-.6753.19727,1.93717,1.93717,0,0,1,.30274,1.01367,1.89088,1.89088,0,0,1-1.9209,1.874,2.11988,2.11988,0,0,1-1.04785-.291,1.15414,1.15414,0,0,0-.06983.32617.83994.83994,0,0,0,.13965.41895.3843.3843,0,0,0,.38428.16308,1.63262,1.63262,0,0,0,.3374.02344h.81494a3.38885,3.38885,0,0,1,1.688.33691,1.50711,1.50711,0,0,1,.80371,1.32813c0,.98926-1.22265,1.71094-2.71289,1.71094S.3374,80.73732.3374,79.73635A1.66833,1.66833,0,0,1,1.19922,78.292a1.40672,1.40672,0,0,1-.26758-.83789,1.36254,1.36254,0,0,1,.23242-.792A1.80045,1.80045,0,0,1,.7915,75.55666a1.89644,1.89644,0,0,1,1.92139-1.86328A2.03731,2.03731,0,0,1,3.8418,74.043a2.12183,2.12183,0,0,1,1.23437-.40723c.62842,0,.84961.36035.84961.62793A.45968.45968,0,0,1,5.46045,74.74123ZM2.73584,78.73439c-.84961,0-.95459,0-1.24561.18653a.99611.99611,0,0,0-.47753.81543c0,.51172.87353,1.01269,2.03759,1.01269s2.0376-.501,2.0376-1.01269C5.08789,78.73439,3.772,78.73439,2.73584,78.73439Zm-.023-4.34277a1.17165,1.17165,0,0,0,0,2.34082,1.17165,1.17165,0,0,0,0-2.34082Z" transform="translate(2.24922)"/><path class="cls-20" d="M10.93359,78.78127H7.499c-.17431,0-.47705,0-.47705-.34961,0-.36035.291-.36035.47705-.36035H8.9082V74.47365H7.59229c-.17432,0-.47706,0-.47706-.36133,0-.34863.30274-.34863.47706-.34863H9.24561c.396,0,.46582.11621.46582.47656v3.83106h1.22216c.17481,0,.47754,0,.47754.36035C11.41113,78.78127,11.1084,78.78127,10.93359,78.78127ZM9.17578,72.90139a.582.582,0,1,1,.582-.582A.57609.57609,0,0,1,9.17578,72.90139Z" transform="translate(2.24922)"/><path class="cls-20" d="M15.51123,78.85158a1.83212,1.83212,0,0,1-1.35059-.59375c0,.291,0,.52344-.396.52344-.40723,0-.40723-.24414-.40723-.47754V72.378H12.8335c-.16309,0-.46582,0-.46582-.34961,0-.36035.291-.36035.47753-.36035h.84961c.396,0,.46582.11621.46582.47754v2.11816a2.19452,2.19452,0,0,1,1.47852-.57031,2.44194,2.44194,0,0,1,2.27051,2.57324A2.50066,2.50066,0,0,1,15.51123,78.85158Zm.05811-4.44824a1.41284,1.41284,0,0,0-1.4087,1.30469v.84961c0,.55859.40772,1.583,1.31543,1.583a1.769,1.769,0,0,0,1.63038-1.874A1.72542,1.72542,0,0,0,15.56934,74.40334Z" transform="translate(2.24922)"/><path class="cls-20" d="M21.47363,78.85158A2.4775,2.4775,0,0,1,19.96,78.40822c-.13965.43164-.32568.44336-.43066.44336-.34912,0-.34912-.292-.34912-.47754V77.24416c0-.23242,0-.47656.40722-.47656.30274,0,.34961.12793.40772.33691a1.38319,1.38319,0,0,0,1.49023,1.03613c1.05957,0,1.49024-.38378,1.49024-.81445,0-.61719-.93164-.76855-1.502-.86133-1.07129-.16308-2.29345-.36132-2.29345-1.43261,0-.419.26757-1.374,2.21191-1.374a2.8392,2.8392,0,0,1,1.24561.24512c.02343-.082.06982-.24512.3496-.24512.34913,0,.34913.291.34913.47754v.80371c0,.23242,0,.47754-.40772.47754-.36084,0-.38379-.19824-.39551-.39648-.03515-.30274-.19824-.65137-1.16455-.65137-1.10595,0-1.47851.36035-1.47851.66309,0,.4541.792.59375,1.12939.64062l.79151.13965c.37255.05859,1.87451.30273,1.87451,1.51367C23.68555,77.88479,23.313,78.85158,21.47363,78.85158Z" transform="translate(2.24922)"/><path class="cls-20" d="M27.50586,78.85158a2.60591,2.60591,0,1,1,2.38672-2.585A2.4838,2.4838,0,0,1,27.50586,78.85158Zm0-4.48242a1.70753,1.70753,0,0,0-1.5835,1.81543,1.80713,1.80713,0,0,0,1.5835,1.95605,1.80713,1.80713,0,0,0,1.5835-1.95605A1.69989,1.69989,0,0,0,27.50586,74.36916Z" transform="translate(2.24922)"/><path class="cls-20" d="M36.06494,78.78127H34.28369c-.16308,0-.477,0-.477-.34961,0-.36035.291-.36035.477-.36035h.4541V75.42775c0-.69824-.16308-1.02441-.77978-1.02441a1.48881,1.48881,0,0,0-1.45557,1.60742v2.06055h.51221c.18652,0,.47754,0,.47754.36035,0,.34961-.30274.34961-.46582.34961H31.17529c-.16308,0-.46582,0-.46582-.34961,0-.36035.291-.36035.47754-.36035h.51221V74.47365h-.52393c-.16308,0-.46582,0-.46582-.34961,0-.36035.291-.36035.47754-.36035h.84961c.46582,0,.46582.17383.46582.54688a2.17237,2.17237,0,0,1,1.52539-.61719c.91944,0,1.51319.501,1.51319,1.67676v2.70117h.5122c.18653,0,.47754,0,.47754.36035C36.53076,78.78127,36.228,78.78127,36.06494,78.78127Z" transform="translate(2.24922)"/><path class="cls-20" d="M41.65479,78.78127H37.82471c-.16309,0-.46582,0-.46582-.34961,0-.36035.291-.36035.47754-.36035h1.50146V72.378H37.82471c-.16309,0-.46582,0-.46582-.34961,0-.36035.291-.36035.47754-.36035h1.83935c.396,0,.46582.11621.46582.47754v5.92578h1.51319c.18652,0,.46582,0,.46582.36035C42.12061,78.78127,41.82959,78.78127,41.65479,78.78127Z" transform="translate(2.24922)"/><path class="cls-20" d="M48.25781,78.78127c-.44238,0-1.00146-.01172-1.25732-.37305a3.24941,3.24941,0,0,1-1.7002.44336,1.72837,1.72837,0,0,1-1.9209-1.56054c0-1.11719,1.43213-1.7002,3.49268-1.73438,0-.82715-.60547-1.1875-1.49023-1.1875-.1045,0-.25586,0-.41895.01172-.23291.02246-.24463.03418-.24463.12793a.51834.51834,0,1,1-1.03613,0c0-.85059,1.1875-.85059,1.688-.85059,1.67676,0,2.30566.97852,2.30566,1.80469v2.51465a1.5908,1.5908,0,0,0,.69824.09375c.17481,0,.46582,0,.46582.34863C48.83984,78.78127,48.5835,78.78127,48.25781,78.78127Zm-1.38574-2.53809c-1.688.04688-2.68945.47754-2.68945,1.04786,0,.4541.47754.8496,1.19922.8496a2.63955,2.63955,0,0,0,1.03613-.19726.64947.64947,0,0,0,.4541-.72266Z" transform="translate(2.24922)"/><path class="cls-20" d="M52.19434,78.85158a1.83212,1.83212,0,0,1-1.35059-.59375c0,.291,0,.52344-.396.52344-.40722,0-.40722-.24414-.40722-.47754V72.378H49.5166c-.16308,0-.46582,0-.46582-.34961,0-.36035.291-.36035.47754-.36035h.84961c.396,0,.46582.11621.46582.47754v2.11816a2.1945,2.1945,0,0,1,1.47852-.57031,2.44194,2.44194,0,0,1,2.2705,2.57324A2.50065,2.50065,0,0,1,52.19434,78.85158Zm.0581-4.44824A1.41283,1.41283,0,0,0,50.84375,75.708v.84961c0,.55859.40771,1.583,1.31543,1.583a1.769,1.769,0,0,0,1.63037-1.874A1.72541,1.72541,0,0,0,52.25244,74.40334Z" transform="translate(2.24922)"/><path class="cls-20" d="M58.07568,78.78127a.72756.72756,0,1,1,.7334-.72168A.72766.72766,0,0,1,58.07568,78.78127Z" transform="translate(2.24922)"/><path class="cls-20" d="M65.959,78.78127H62.52441c-.17431,0-.47705,0-.47705-.34961,0-.36035.291-.36035.47705-.36035h1.40918V74.47365H62.61768c-.17432,0-.47706,0-.47706-.36133,0-.34863.30274-.34863.47706-.34863H64.271c.396,0,.46582.11621.46582.47656v3.83106H65.959c.17481,0,.47754,0,.47754.36035C66.43652,78.78127,66.13379,78.78127,65.959,78.78127Zm-1.75781-5.87988a.582.582,0,1,1,.582-.582A.57609.57609,0,0,1,64.20117,72.90139Z" transform="translate(2.24922)"/><path class="cls-20" d="M70.30322,78.85158a2.60591,2.60591,0,1,1,2.38672-2.585A2.4838,2.4838,0,0,1,70.30322,78.85158Zm0-4.48242a1.70752,1.70752,0,0,0-1.58349,1.81543,1.619,1.619,0,1,0,3.167,0A1.69989,1.69989,0,0,0,70.30322,74.36916Z" transform="translate(2.24922)"/></svg>