<svg id="Layer_1" data-name="Layer 1" xmlns="http://www.w3.org/2000/svg" xmlns:xlink="http://www.w3.org/1999/xlink" viewBox="0 0 272.03362 284.69206"><defs><style>.cls-1,.cls-10,.cls-11,.cls-12,.cls-13,.cls-14,.cls-15,.cls-16,.cls-18,.cls-19,.cls-3,.cls-4,.cls-5,.cls-6,.cls-7,.cls-8,.cls-9{fill:none;}.cls-2{clip-path:url(#clip-path);}.cls-10,.cls-11,.cls-12,.cls-13,.cls-14,.cls-15,.cls-18,.cls-19,.cls-3,.cls-4,.cls-5,.cls-6,.cls-7,.cls-8,.cls-9{stroke:#231f20;}.cls-10,.cls-11,.cls-12,.cls-13,.cls-14,.cls-15,.cls-3,.cls-5,.cls-6,.cls-7,.cls-8,.cls-9{stroke-linecap:round;}.cls-16,.cls-17,.cls-18,.cls-3{stroke-linejoin:round;}.cls-3{stroke-width:2.31598px;}.cls-10,.cls-11,.cls-12,.cls-13,.cls-14,.cls-15,.cls-19,.cls-4,.cls-5,.cls-6,.cls-7,.cls-8,.cls-9{stroke-miterlimit:10;}.cls-4{stroke-width:1.73698px;}.cls-5{stroke-width:1.65615px;}.cls-6{stroke-width:1.65615px;}.cls-7{stroke-width:1.65404px;}.cls-8{stroke-width:1.65064px;}.cls-9{stroke-width:1.655px;}.cls-10{stroke-width:1.65615px;}.cls-11{stroke-width:1.65615px;}.cls-12{stroke-width:1.65615px;}.cls-13{stroke-width:1.65615px;}.cls-14{stroke-width:1.69205px;}.cls-15{stroke-width:1.65501px;}.cls-16{stroke:#000;stroke-width:1.15799px;}.cls-17{stroke:#fff;stroke-width:0.49485px;}.cls-18{stroke-width:2.70275px;}.cls-19{stroke-width:2.07146px;}.cls-20{fill:#231f20;}</style><clipPath id="clip-path" transform="translate(7.86141)"><circle class="cls-1" cx="128.22229" cy="119.92694" r="118.57557"/></clipPath></defs><g class="cls-2"><polygon class="cls-3" points="165.279 22.456 142.278 22.456 119.278 22.456 119.278 33.956 119.278 45.456 142.278 45.456 165.279 45.456 165.279 33.956 165.279 22.456"/><polygon class="cls-3" points="130.778 68.457 153.779 56.956 153.779 68.457 153.779 79.957 130.778 68.457"/><polyline class="cls-3" points="153.779 68.457 176.779 68.457 176.779 33.956 165.279 33.956"/><circle class="cls-3" cx="96.27778" cy="33.95608" r="11.50015"/><polyline class="cls-3" points="96.278 45.456 96.278 68.457 130.778 68.457"/><line class="cls-3" x1="107.77793" y1="33.95608" x2="119.27808" y2="33.95608"/><line class="cls-3" x1="73.27748" y1="33.95608" x2="84.77763" y2="33.95608"/><line class="cls-3" x1="188.27897" y1="33.95608" x2="165.27867" y2="33.95608"/><path class="cls-4" d="M83.24283,239.23031c8.76608-22.56828,6.0405-34.227,1.52946-40.74014-4.67818-6.7544-9.9906-6.8341-17.86221-16.60764a48.6431,48.6431,0,0,1-10.112-24.97222c-1.01887-10.20894,1.83-17.70515,6.21184-28.82113a149.17123,149.17123,0,0,1,19.90692-35.2987" transform="translate(7.86141)"/><path class="cls-4" d="M90.87217,246.82082c-6.50928-6.51651-14.33058-16.58485-15.93473-29.90014-1.08642-9.01748,1.62519-11.667,2.14928-25.13849.23508-6.04188.68862-21.18718-5.32278-37.46806-2.24392-6.07726-7.73662-20.44726-21.03441-31.6611C27.83924,103.35-1.63374,107.35037-7.36864,108.2412" transform="translate(7.86141)"/><line class="cls-4" x1="82.97779" y1="207.81488" x2="96.11591" y2="206.86835"/><line class="cls-4" x1="84.62902" y1="199.40402" x2="92.6337" y2="198.49017"/><line class="cls-4" x1="85.35929" y1="184.63413" x2="81.69536" y2="187.96834"/><line class="cls-4" x1="75.29735" y1="181.27757" x2="84.52827" y2="174.9418"/><line class="cls-4" x1="68.18276" y1="171.23387" x2="82.40397" y2="163.30545"/><line class="cls-4" x1="65.44139" y1="161.94033" x2="79.3902" y2="155.44392"/><line class="cls-4" x1="64.7732" y1="150.86141" x2="75.87234" y2="147.06057"/><line class="cls-4" x1="66.78009" y1="140.61615" x2="72.45739" y2="139.90679"/><line class="cls-4" x1="67.00945" y1="130.16436" x2="71.44622" y2="126.41635"/><line class="cls-5" x1="58.75867" y1="122.19253" x2="62.90494" y2="116.6174"/><line class="cls-6" x1="51.20736" y1="116.8369" x2="54.86284" y2="110.92833"/><line class="cls-7" x1="46.24749" y1="106.14279" x2="42.99297" y2="112.28134"/><line class="cls-8" x1="24.32344" y1="100.37349" x2="23.48607" y2="107.24779"/><line class="cls-9" x1="12.56779" y1="99.73724" x2="12.5025" y2="106.68487"/><line class="cls-10" x1="68.31464" y1="115.97327" x2="74.21333" y2="119.64468"/><line class="cls-11" x1="72.03744" y1="107.70921" x2="78.07326" y2="111.15052"/><line class="cls-12" x1="76.53481" y1="100.45659" x2="82.31033" y2="104.31885"/><line class="cls-13" x1="80.84869" y1="93.50573" x2="86.39927" y2="97.68482"/><line class="cls-14" x1="34.11937" y1="109.41349" x2="35.92227" y2="102.70355"/><line class="cls-15" x1="0.8275" y1="100.57518" x2="1.52577" y2="108.08597"/><line class="cls-4" x1="83.38725" y1="218.35959" x2="96.60635" y2="216.9563"/><line class="cls-4" x1="86.30842" y1="228.29509" x2="95.26535" y2="226.84999"/><path d="M175.9654,214.30243l-1.82131-.06916-1.796-.17983-1.766-.30893-1.73832-.44265-1.70834-.57175-1.67607-.71008-1.64148-.86224-1.6046-1.02363-1.5608-1.20806-1.51238-1.42016-1.45244-1.66454-1.04437-1.44321-.99826-1.65532-.78616-1.57232-.82536-2.05647-.62478-2.015-.46109-1.97347-.32968-1.93659-.22363-1.90431-.17752-2.808-.03458-2.77577.10605-3.60574.3366-5.45932.60633-7.17.56715-5.35327.69625-5.3256,2.93715-18.48516.81613-4.385.78847-3.48585.70777-2.59595.83227-2.57058.98213-2.536.75158-1.67837,1.28644-2.46684.95446-1.57924,1.11354-1.64609,1.20575-1.57233,1.33486-1.54235,1.48472-1.50316,1.16656-1.0582,1.39019-1.12968,1.9458-1.37866,2.13255-1.268,2.07491-1.019,2.0265-.81383,1.849-.5925,1.92044-.47723,2.07261-.362,1.88125-.19827,1.85359-.06455,1.82362.05072,1.79595.166,1.77059.279,1.74293.38271.03227.00692,1.68529.47722,1.69451.58559,1.66915.68472,1.61152.76541,2.85185,1.6046,1.97117,1.29106,2.03341,1.50085,2.56367,2.10719,8.46564,7.83394,1.52621,1.25878,1.82823,1.33025,1.58846.97291,1.5654.79077,1.59769.657,1.62765.53256,1.65993.438,2.54061.5072,8.66161,1.25648,2.60747.48414,2.57981.63631,1.70834.53947,1.66915.64553,1.66915.77925,1.59768.92679,1.60921,1.14351,1.53313,1.36483.75619.80691.72161.88991.69625.99134.664,1.12507.62709,1.30027.56944,1.517.32277,1.12968.37118,1.96425.15907,1.91814-.01844,1.872-.17291,1.83514-.302,1.79826-.4265,1.766-.53026,1.73371-.62478,1.706-1.30028,2.88644-1.11353,2.10257-1.4755,2.41612-1.6484,2.38385-1.8167,2.33773L252.74636,173.15l-2.18327,2.25012-2.40229,2.19941-1.42477,1.185-2.17635,1.65532-2.00575,1.374-2.17174,1.328-2.24091,1.22189-2.05416,1.00057-3.02476,1.268-2.97173,1.04668-2.47146.747-10.05871,2.64666-1.92275.6317-1.83514.72391-1.25878.59481-1.86973,1.05129-1.30719.87146-1.77981,1.36944-1.21037,1.05129-6.47372,6.20168-2.46684,2.17635-1.41786,1.1389-2.1948,1.59076-2.14407,1.351-2.098,1.13429-1.79825.83457-2.25935.87147-1.97578.60864-1.9435.45648-1.90892.32276-1.88125.18444Zm14.04254-108.76687-1.77751.06225-1.80286.189-1.99422.34813-1.84437.45878-1.7729.56715-1.9458.78155-1.99422.97982-2.05417,1.22189-1.87664,1.33025-1.33486,1.08587-1.11815,1.0144-1.4363,1.45474-1.28875,1.48933-1.16425,1.517-1.07665,1.59307-.91988,1.5216-1.25417,2.40459-.72622,1.62074-.95907,2.47837-.81382,2.51295-.694,2.54522-.77693,3.43974-.80922,4.3481-1.28875,7.89388-1.64379,10.55439-.69164,5.29794-.56484,5.33022-.604,7.14691-.33429,5.42705-.10605,3.55963.03458,2.72044.17291,2.7481.21672,1.84437.32045,1.87664.44265,1.8997.59712,1.92736.79077,1.96886.74466,1.48933.94985,1.57693.98443,1.36483,1.37866,1.58154,1.43169,1.34178,1.4778,1.1389,1.5193.96829,1.55618.81613,1.59077.67319,1.623.54409,1.65532.4196,1.683.29509,1.71526.17522,1.74293.06455,1.77289-.06455,1.80518-.17522,1.83283-.30893,1.86743-.438,1.89969-.58559,2.18788-.8438,1.7314-.8023,2.03111-1.0974,2.07952-1.31411,2.14177-1.55387,1.37405-1.102,2.42765-2.13947,6.48064-6.2109,1.25648-1.08818,1.83744-1.41555L210.07,193.083l1.9435-1.09279,1.33025-.62708,1.902-.747,1.98039-.65014,2.9118-.80691,7.16766-1.849,2.423-.72853,2.9164-1.02823,2.96482-1.245,2.00114-.9729,2.19249-1.19423,2.121-1.30028,1.95733-1.34177,2.13255-1.61844L247.4,176.72809l2.35848-2.15791,2.13716-2.19941,1.955-2.24551,1.77751-2.29163,1.61151-2.32851,1.43861-2.35618,1.64379-3.2092.69855-1.63226.604-1.65071.51181-1.67376.40807-1.69221.28818-1.71526.166-1.74292.01845-1.77059-.14986-1.80748-.35273-1.85359-.2951-1.03284-.53256-1.42478-.58328-1.20806-.61786-1.04206-.64784-.92219-1.36252-1.5631-1.44552-1.29105-1.51469-1.07435-1.50777-.87146-1.58615-.74236-1.59769-.61786-1.63918-.51642-2.51064-.62247-2.55214-.47493-8.66852-1.25417-2.60517-.521-1.72679-.45418-1.70142-.55792-1.67838-.69163-1.64609-.83227-1.66915-1.02132-1.89509-1.37636-1.57232-1.298-1.83284-1.65763-6.63741-6.18093-2.51295-2.06569-1.985-1.464-3.08009-1.955-1.6046-.85763-1.55618-.74-1.60921-.66167-1.63227-.56253-1.63687-.46109-1.69221-.37349-1.69912-.26743-1.72218-.15908Z" transform="translate(7.86141)"/><path d="M177.1896,205.3757l-1.83515-.106-1.79134-.30432-1.74523-.51642-1.69681-.73314-1.61613-.94985-.83919-.61786-.85532-.73775-1.15734-1.21728-.89682-1.15734-.70778-1.12045-.56484-1.079-.70086-1.69682-.43573-1.39711-.42881-1.97808-.24438-1.92736-.08761-1.3925-.00461-2.35157.17752-2.72966.32507-2.69738,2.05416-12.31115.44957-3.52274.3389-3.555,1.00749-17.07883.34812-3.58729.35965-2.67433.47723-2.65128.62017-2.62361.51181-1.73831.59711-1.713.69856-1.6899.80691-1.66915.93371-1.64149,1.072-1.61151,1.238-1.57463,1.42477-1.53082.80691-.75619,1.789-1.43861,1.03515-.70547,1.12276-.67088,2.13716-1.03516,2.01036-.7193,1.96425-.48645,1.91583-.28127,1.87434-.09913,1.83515.06916,1.79364.22363,1.76137.36888,1.72448.5095,1.69221.64553,1.65762.77925.02536.01152.44957.23977,1.9435,1.15042,1.57924,1.0951,1.54465,1.21728,1.51008,1.33716,1.83975,1.82592,1.80748,1.99423,4.91524,5.89274,1.41555,1.51238,1.44321,1.31412,1.487,1.09278,1.52622.86224,1.44552.61787,1.74984.55331,1.65993.37809,1.69912.28127,10.49675,1.10662,2.6213.46109,1.736.42881,1.71065.54409,1.683.70086,1.6484.89913,1.28645.90835,1.09048.96368.75619.83.717.95446.67781,1.1389.61325,1.40172.51873,1.872.21441,1.5631.0438.97751-.01614.94063L253.793,154.794l-.36426,1.79826-.51642,1.75676-.65245,1.71526-.77694,1.67837-.89221,1.65071-1.00748,1.61843-1.11584,1.59538-1.23112,1.5631-1.34869,1.53543-1.4801,1.50316-1.6023,1.45705-1.79825,1.44322-1.54466,1.10662-2.14177,1.34177-2.091,1.12506-2.04955.9268-1.72448.664-1.6438.53948-1.81208.498-2.6605.56253-2.8288.39654-2.785.22593-8.17976.29049-2.85416.36426-1.71757.47031-.92679.38732-.97751.53026-1.019.71469-1.02131.913-1.24034,1.36944-6.22243,8.62241L194.28,196.70257l-1.41555,1.5216-1.58154,1.48472-1.80056,1.4386-1.34408.913-1.955,1.11123-2.23168.97752-1.985.62247-.99135.23055-1.79134.27665Zm12.49558-90.918-1.76829.09452-1.80748.26513-1.85358.45879-1.91123.68472-2.00344.9729-2.03572,1.29567-1.71757,1.381-.74466.69855-1.36713,1.46627-1.1804,1.50085-1.02362,1.54005-.89452,1.57463-.77463,1.6046-.6732,1.62765-.57636,1.65532-.49567,1.683-.60634,2.55906-.4657,2.59594-.35274,2.62823-.34351,3.54579-.2951,4.47259-.71239,12.60163-.34351,3.59651-.45417,3.55963-2.05417,12.31114-.31815,2.63744-.17291,2.6605.00461,2.27779.083,1.31872.23285,1.84437.40807,1.88125.40345,1.29567.65936,1.6.521.99135.65474,1.03284.82536,1.06973,1.07665,1.13429,1.53543,1.2265,1.50316.8853,1.56541.6778,1.61382.47493,1.66223.28126,1.70834.10144,1.872-.09222,2.59364-.47492,1.902-.59942,2.08874-.913,1.87434-1.06512,1.268-.86224,1.72909-1.38328,1.5193-1.42938,1.36714-1.46627,1.24725-1.49394,1.72218-2.30546,4.50717-6.32617,1.32794-1.46627,1.11815-1.00057,1.12967-.79308,1.08818-.5902,1.049-.43342,1.84437-.5072,1.13889-.19366,1.87664-.19366,8.20052-.2951,2.72274-.21671,2.755-.38732,2.589-.5487,1.75215-.47953,1.58846-.521,1.66454-.64091,1.98269-.89913,2.02419-1.08818,2.07953-1.30027,1.48932-1.06974,1.74523-1.40172,1.55158-1.41094,1.434-1.457,1.3072-1.48933,1.19192-1.51238,1.07895-1.54005.97287-1.5631.85766-1.59076.74467-1.60921.62247-1.63688.49106-1.66454.34352-1.6922.17752-1.72448.01383-.85763-.03919-.88991-.26974-1.79826-.39654-1.34638-.55562-1.268-.61094-1.02362-.64784-.86224-.6778-.74236-.996-.88068-1.18039-.83458-1.53774-.83457-1.58155-.65475-1.62534-.51643-1.65993-.41037-2.55214-.44726-2.589-.31354-7.89158-.79308-1.7706-.29509-1.73831-.39654-1.849-.58559-1.55618-.66858-1.64149-.9268-1.59076-1.16656-1.52391-1.38327-1.46858-1.56771-4.92215-5.90428-1.77059-1.95272-1.79364-1.78212L204.9427,120.498l-1.49164-1.17579-1.51468-1.05128-2.30085-1.33256-1.6046-.75619-1.60921-.61325-1.63687-.48415-1.66915-.35043-1.69682-.2121Z" transform="translate(7.86141)"/><polyline class="cls-16" points="247.55 149.592 246.759 149.136 245.95 148.757 244.286 148.189 242.574 147.826 240.824 147.622 239.044 147.545 237.237 147.583 235.323 147.721 232.624 148.08 229.793 148.647 227.875 149.149 225.925 149.79 224.932 150.19 223.92 150.665 222.877 151.271 221.773 152.135 221.279 152.608 220.698 153.383 220.252 154.19 219.919 155.023 219.684 155.88 219.528 156.756 219.405 158.552 219.489 160.397 219.794 162.294 220.044 163.266 220.579 164.768 220.792 165.268 221.345 166.312 222.078 167.398 223.092 168.551 223.992 169.34 224.758 169.9 225.545 170.371 226.348 170.776 227.998 171.402 229.701 171.803 231.453 171.999 233.251 172.001 235.097 171.8 236.992 171.39 237.959 171.103 239.942 170.325 240.958 169.831 241.994 169.253 243.053 168.575 244.741 167.291 245.556 166.572 246.993 165.087 248.209 163.55 249.22 161.964 250.017 160.328 250.599 158.641 250.797 157.775 250.925 156.893 250.974 155.992 250.866 154.573 250.782 154.121 250.372 152.86 249.745 151.714 249.052 150.841 248.316 150.155 247.55 149.592"/><circle cx="192.98549" cy="136.91675" r="3.47396"/><path d="M221.3783,165.88321a3.23216,3.23216,0,0,0,2.44148,3.85473,3.27669,3.27669,0,0,0,2.43456-.42421,3.16884,3.16884,0,0,0,1.41872-3.36423c-.0634.00317-.11959.04438-.183.04438a3.67839,3.67839,0,0,1-2.08875-.64553,3.63906,3.63906,0,0,1-1.35013-1.85071,3.14887,3.14887,0,0,0-1.25273.366A3.18756,3.18756,0,0,0,221.3783,165.88321Z" transform="translate(7.86141)"/><path d="M229.31369,159.60776a3.22287,3.22287,0,0,0-1.8144-.56253,3.02039,3.02039,0,0,0-.60633.05994,3.22731,3.22731,0,0,0-1.215,5.83742,3.228,3.228,0,0,0,3.63571-5.33483Z" transform="translate(7.86141)"/><circle class="cls-17" cx="254.32909" cy="147.99336" r="3.47396"/><path d="M185.25178,188.3107l.3804-1.268.1245-.83a.71292.71292,0,0,0,.01844-.14294l.00461-.96829-.11758-1.00518-.19365-.8438-.53718-1.28183-.86685-1.25417-.81382-.7608-.8853-.56715-.82535-.32276a.52344.52344,0,0,0-.11758-.03228l-.86455-.13832c-.0438-.00462-.13371-.00462-.18443-.00462l-.99366.09222-1.08126.34582-1.13659.69164-.95907.90374-.31354.355-.87838,1.33716-.42881.86686-.33891.8899-.24668.92219-.14524.94062-.032.7951a3.66914,3.66914,0,0,1,.885-.84121c.10605-.06714.23169-.07809.34236-.134l.07953-.52075.21441-.8023.29971-.78385.38271-.77.76541-1.17118.97751-.98212.95446-.604.87608-.30893.77694-.07378.8046.12911.44726.17521.90835.51643.67319.62708.62017.87607.48415,1.079.2121.84841.10374.87146-.00461.82535-.11988.81613-.2121.79308-.73314,1.51238-.53025.72853-1.16656,1.06454a3.5406,3.5406,0,0,1,.55561.01441,3.66728,3.66728,0,0,1,.81613.35908l.45879-.44208.83688-1.09739.49106-.86686Z" transform="translate(7.86141)"/><path d="M172.05765,148.49545l.35965,2.84494.49106,2.8726.97464,4.74549a3.68,3.68,0,0,1,1.24523.55562l-1.081-5.51321-.48415-2.83111-.355-2.79421-.20979-2.75733-.06456-2.725.0415-1.77981.2121-2.65589.23977-1.7337.3366-1.71065.43342-1.683.5464-1.6507.66628-1.62305.81152-1.58154.96368-1.54235,1.15734-1.49163,1.34638-1.3925.86686-.74235.88817-.65648a3.60841,3.60841,0,0,1-.147-1.27723l-.49221.31066-.9683.717-.93832.80461-1.42708,1.47779-1.23342,1.58616-1.02131,1.63226-.85533,1.67146-.70086,1.706-.57175,1.72909-.45187,1.75215-.35043,1.7752-.249,1.79826-.21671,2.72044-.04381,1.83975.06686,2.785Z" transform="translate(7.86141)"/><path d="M180.79072,198.17806a3.62139,3.62139,0,0,1-1.0582-.47175l-.19366.04294-1.713.07838-.82535-.06916-.81613-.14294-.78616-.2121-.77464-.2951-.75619-.3781-1.4363-1.02823-.48184-.4657-.8461-1.02363-.61325-1.00979-.44957-1.00518-.54869-1.85819-.15216-.90374-.136-1.71987.06-1.83054.2121-1.7337.3389-1.706.44265-1.67837.83-2.49912,3.15617-7.48351.65014-1.71988.5072-1.77981.29049-1.83975.00605-.35245a3.69629,3.69629,0,0,1-.6608.6291,3.64548,3.64548,0,0,1-.59826.26974l-.16485,1.03976-.47722,1.66454-3.79018,9.16189-.85763,2.5775-.46109,1.75215-.35273,1.78442-.22363,1.82593-.06225,1.9458.14294,1.83053.1706,1.01441.47723,1.69681.62709,1.45244.69394,1.14351.936,1.13889.57406.55331,1.02132.79308,1.464.79769.88068.3366.89221.24437.91988.16139.94754.07838,1.5193-.05072,1.36022-.21671,1.02132-.26743.813-.30836a3.67076,3.67076,0,0,1-.90057.12853A3.53707,3.53707,0,0,1,180.79072,198.17806Z" transform="translate(7.86141)"/><path d="M247.60057,152.64989l-.52333-1.92275-.64553-1.33256-.71239-1.04206-.77-.85764-1.2265-1.03284-1.19193-.7608-1.68067-.78386-1.71757-.57175-1.74293-.40576-1.76828-.28127-1.78443-.17521-2.69508-.13833-8.95209-.01844-1.72909-.10144-1.69912-.23055-.81613-.17521-1.56541-.51643-.74236-.37348-.73313-.47953-.70086-.56715-.68472-.71008-.73314-.92679-.70547-1.05129-3.68642-6.55211-1.32795-2.10719-1.51929-2.08413-1.29337-1.52391-1.48241-1.50546-1.53312-1.31872-1.57694-1.1389-1.57463-.94293a.355.355,0,0,0-.05072-.02767l-1.66684-.78616-1.713-.61786-1.75906-.43343-1.80748-.24438-1.83745-.0438-.966.06686-.70288.1121a1.67314,1.67314,0,0,1,.7072,1.05763l.12248-.01931.86224-.05994,1.72217.03919,1.68068.22824,1.64149.40346,1.6046.57867,1.59307.75388,1.50777.89913,1.49624,1.08126,1.45935,1.25647,1.42016,1.44092,1.238,1.45935,1.47089,2.01958,1.28875,2.04725,2.45762,4.42647,1.24264,2.14869.75158,1.12045.79768,1.00518.77233.79769.79769.65014.83919.5487.85763.42881.86685.332.88068.2536,2.68586.42882,1.80748.11066,8.9544.01844,2.63975.13372,1.72217.1706,1.69451.26743,1.65071.38271,1.60229.53487,1.5631.72852.75158.45648,1.40864,1.14351.664.73775.62247.90835.56945,1.17578.38962,1.30028.20288,1.766-.00922.86685-.20288,1.67837-.4219,1.66454-.604,1.62766-.76541,1.59537-.92218,1.5631-1.07434,1.52621-1.23112,1.49394-1.39941,1.45244-1.58846,1.41555-1.27492.98213-1.53543,1.03284-1.55388.89913-1.98039.94063-1.92736.72391-1.88356.53486-1.84667.36888-1.67838.2121-1.89739.083-1.7314-.05533-1.71987-.17983-1.67606-.31354-1.6438-.44265-1.60921-.581-1.57-.72852-1.52391-.88991-1.4778-1.102-1.43169-1.351-1.019-1.15734-3.09853-4.22821-.74928-.853-.717-.664-.9291-.65936-.89222-.42882-.92448-.272-.94524-.13372-.96368-.00461-.99135.11066-.99365.22594-1.03285.32737-1.05129.46109-1.09048.61325-1.1412.82075-1.02132.96829-.64783.8438-.48876.8899-.332.93141-.17061.96368-.02766.98212.106.99135.20518,1.019,1.24034,3.9285.56023,1.91814.38731,1.87665.21441,2.68816-.083,1.74293-.25361,1.71064-.41037,1.67377-.56253,1.63687-.72852,1.59538-.906,1.5631-1.47549,1.94119-.966,1.00518-1.27319,1.03746c-.00461.02305.00346.04611-.00172.06916a3.69656,3.69656,0,0,1-1.59308,2.28471l.76542-.38962,1.09278-.69164.94985-.7193.85763-.75158,1.03515-1.07895,1.0144-1.25878.56945-.82536.95677-1.65532.77463-1.69681.59942-1.73832.43573-1.7752.26974-1.82131.08991-1.86281L192.952,179.49l-.53486-2.94637-1.80287-5.86047-.18213-.90374-.09453-.85763.02075-.81614.136-.78385.26744-.75619.40115-.73314.53947-.70547.90144-.853,1.02593-.73313.98673-.55331.94293-.415.9291-.2951.88069-.20288.85532-.09222h.82075l.78385.106.75158.22132.72161.34582.79077.56253.62017.57637.6755.77,3.10084,4.22821,1.08817,1.23573,1.5193,1.42938,1.58154,1.18039,1.62766.95446,1.66684.77464,1.70374.61325,1.7337.4657,1.76367.332,1.80748.189,1.819.06,1.9873-.08761,1.766-.22132,1.932-.38732,1.97347-.55792,2.01958-.7608,2.06569-.98213,1.62765-.94062,1.6-1.07435,1.33716-1.02823,1.653-1.47549,1.46166-1.517,1.28644-1.5631,1.12507-1.6.97059-1.6461.80922-1.6876.64322-1.7337.45187-1.7752.22594-1.85359.00922-.9729Z" transform="translate(7.86141)"/><path d="M205.377,135.508l-.65562-1.76281-.87607-1.81209-.81844-1.39711-1.22189-1.706-1.60691-1.78212L198.718,125.759l-1.51238-1.049-.79077-.45648a.549.549,0,0,0-.05072-.02767l-1.6899-.76541-1.74984-.54178-1.789-.30432-.92679-.05764-1.0559.01153-.68588.06426a3.63025,3.63025,0,0,1-.72593,1.30691l.70864-.14467,1.72679-.08069.823.04842,1.653.28126,1.60921.498,1.59768.72853,2.14869,1.39941,1.39019,1.21267.82074.85993.6732.79769,1.16425,1.623.76772,1.31412.83458,1.72448.37117.9997a3.45619,3.45619,0,0,1,.694.01931A3.65582,3.65582,0,0,1,205.377,135.508Z" transform="translate(7.86141)"/><path d="M179.61033,127.63337l-.79769,1.08587-.97982,1.65532-.77,1.69681-.5925,1.74293-.43112,1.77059-.28588,1.80287-.15216,1.83053-.02075,1.86281.12219,1.89509.272,1.932.438,1.96425.2951,1.0144.54178,1.4755.83919,1.68759.71008,1.11584.46339.62248.76311.81152.81152.69163.83919.53487.87838.41959.89913.2951.91757.18444.95446.08761,1.88817-.06917,1.91814-.31815,1.94119-.48415,1.96425-.60864,2.96713-1.06512,2.46453-1.00057,2.5775-1.24956,1.155-.67319,1.11353-.78847.80461-.69163.72161-.81614.574-.85763.42421-.88529.302-.89913.20749-.91757.1268-.94524.05534-1.87664-.01874-.2245a3.69413,3.69413,0,0,1-1.15273.79712l-.03659,1.20719-.113.83458-.18213.81152-.25821.77463-.355.747-.48415.72391-.61786.69625-.70778.604-1.03054.73314-1.072.62708-2.50142,1.21267-2.4092.97752-2.921,1.04667-1.90892.5902-1.86512.4657-1.796.29971-1.73831.06456-.82075-.07378-.79077-.15677-.7608-.249-.747-.35965-.71469-.45187-.70086-.59942-.6755-.7193-1.0559-1.5631-.78385-1.57694-.5049-1.37866-.69394-2.82188-.25821-1.84436-.11758-1.81209.01844-1.77982.14525-1.74292.272-1.71065.40807-1.67376.55792-1.64149.7193-1.59077.91757-1.54926.72853-.996,1.08587-1.20806.77233-.68933.87146-.664.95647-.59683c-.02132-.00432-.04293-.00259-.06426-.0072a3.66773,3.66773,0,0,1-1.22794-.549l-.319.19856-.95216.72622-.85071.7631Z" transform="translate(7.86141)"/><path d="M184.23277,124.71466a3.22018,3.22018,0,0,0,3.85473-2.44148v-.00231a3.22168,3.22168,0,0,0-2.43918-3.85241,3.26128,3.26128,0,0,0-.71238-.0807,3.2299,3.2299,0,0,0-2.72044,4.95674A3.19463,3.19463,0,0,0,184.23277,124.71466Z" transform="translate(7.86141)"/><path d="M172.33661,165.72644a3.22781,3.22781,0,0,0,1.41555-6.29851,3.46567,3.46567,0,0,0-.717-.07838,3.22822,3.22822,0,0,0-.69855,6.37689Z" transform="translate(7.86141)"/><path d="M179.84318,190.03519a3.23023,3.23023,0,0,0-2.43917-3.85473,3.40546,3.40546,0,0,0-.71239-.07838,3.23041,3.23041,0,0,0-.70086,6.3815,3.30181,3.30181,0,0,0,2.43226-.4242A3.20876,3.20876,0,0,0,179.84318,190.03519Z" transform="translate(7.86141)"/><path d="M180.89677,197.69853a3.24753,3.24753,0,0,0,3.85473-2.4484,3.22936,3.22936,0,0,0-2.44148-3.85472,3.40533,3.40533,0,0,0-.71239-.07839,3.23034,3.23034,0,0,0-.70086,6.38151Z" transform="translate(7.86141)"/><path d="M207.05911,139.55489a3.22937,3.22937,0,0,0-2.44148-3.85473,3.42705,3.42705,0,0,0-.7147-.07838,3.22789,3.22789,0,0,0-.69855,6.37689A3.254,3.254,0,0,0,207.05911,139.55489Z" transform="translate(7.86141)"/></g><circle class="cls-18" cx="136.0837" cy="119.92694" r="118.57557"/><polygon class="cls-1" points="237.383 60.239 135.386 236.903 33.389 60.239 237.383 60.239"/><path class="cls-19" d="M128.22229,119.92694" transform="translate(7.86141)"/><line class="cls-19" x1="237.38264" y1="60.23939" x2="153.25663" y2="109.80828"/><path class="cls-19" d="M128.22229,119.92694" transform="translate(7.86141)"/><line class="cls-19" x1="33.38857" y1="60.23939" x2="111.9505" y2="105.90046"/><line class="cls-19" x1="136.0837" y1="141.73077" x2="136.0837" y2="238.40837"/><path class="cls-20" d="M154.41283,84.59278H104.2674a12.58057,12.58057,0,0,0-12.58059,12.5806v50.14543a12.58063,12.58063,0,0,0,12.58059,12.58088h50.14543a12.5809,12.5809,0,0,0,12.58088-12.58088V97.17338A12.58084,12.58084,0,0,0,154.41283,84.59278Zm-.91844,65.07557a5.57568,5.57568,0,0,1-.11613,1.24956,1.66669,1.66669,0,0,1-.69625.92391,2.81489,2.81489,0,0,1-1.68875.42882H132.53087a4.48108,4.48108,0,0,1-1.19913-.12882,1.641,1.641,0,0,1-.851-.70921,2.86051,2.86051,0,0,1-.39971-1.63717v-16.8258a29.67648,29.67648,0,0,1-4.92445.43688,29.12423,29.12423,0,0,1-5.74319-.52881,19.43828,19.43828,0,0,1-5.18872-1.86944,13.86093,13.86093,0,0,1-4.3259-3.48038,16.41391,16.41391,0,0,1-2.84551-5.63453,27.16528,27.16528,0,0,1-1.08155-8.03222q0-19.46829,19.24683-19.46814h.05129A24.62024,24.62024,0,0,1,135.783,96.61027q1.21037.51657,1.21094,1.10921,0,.30864-.745,4.5893a2.98591,2.98591,0,0,1-.61671,1.52189l-.25735.0513a4.19414,4.19414,0,0,1-1.18212-.78616q-.82133-.683-1.75186-1.41843a9.299,9.299,0,0,0-2.85445-1.3536,14.09893,14.09893,0,0,0-4.32734-.6193,13.528,13.528,0,0,0-5.15817.90288,9.51389,9.51389,0,0,0-3.4481,2.25589,9.93354,9.93354,0,0,0-1.98154,3.35213,17.52207,17.52207,0,0,0-.96455,3.8164,32.04347,32.04347,0,0,0-.2317,4.03541q0,14.02814,11.91374,14.02727a30.93672,30.93672,0,0,0,4.69218-.52276V120.204h-3.62965a1.44544,1.44544,0,0,1-.868-.20576,1.32,1.32,0,0,1-.3242-.95446v-2.63024a1.44453,1.44453,0,0,1,.194-.851.82235.82235,0,0,1,.42535-.32219,2.97189,2.97189,0,0,1,.72219-.064h9.9273a1.38154,1.38154,0,0,1,.82449.27089,1.1908,1.1908,0,0,1,.23256.8631v30.57123q2.01093,0,5.31149-.07781,3.30082-.07693,5.72416-.12824,2.42333-.05187,2.553-.05216,2.32131,0,2.32073,2.44638Z" transform="translate(7.86141)"/><path class="cls-20" d="M19.09326,261.24285a1.69852,1.69852,0,0,1-1.58789-1.38379,5.9342,5.9342,0,0,0-2.36084.69238,6.76088,6.76088,0,0,1,1.05811,3.542,6.6121,6.6121,0,0,1-6.71729,6.55371,7.42974,7.42974,0,0,1-3.66357-1.01758,4.08415,4.08415,0,0,0-.24463,1.13965,2.9561,2.9561,0,0,0,.48877,1.46582,1.3436,1.3436,0,0,0,1.34326.57032,5.78858,5.78858,0,0,0,1.18066.08105h2.84961a11.82012,11.82012,0,0,1,5.90332,1.18066,5.26732,5.26732,0,0,1,2.80909,4.64063c0,3.46094-4.27491,5.98437-9.48584,5.98437s-9.48536-2.48242-9.48536-5.98437a5.83265,5.83265,0,0,1,3.0127-5.04785,4.9215,4.9215,0,0,1-.93652-2.93067,4.75475,4.75475,0,0,1,.81445-2.76855,6.293,6.293,0,0,1-1.30274-3.86719,6.63025,6.63025,0,0,1,6.7168-6.51367,7.13036,7.13036,0,0,1,3.94922,1.2207,7.43922,7.43922,0,0,1,4.31543-1.4248c2.19824,0,2.97168,1.26172,2.97168,2.19824A1.60786,1.60786,0,0,1,19.09326,261.24285ZM9.56689,275.20671c-2.97168,0-3.33837,0-4.356.65137A3.47932,3.47932,0,0,0,3.542,278.70769c0,1.792,3.05322,3.542,7.124,3.542,4.07128,0,7.12451-1.75,7.12451-3.542C17.79053,275.20671,13.19043,275.20671,9.56689,275.20671Zm-.08154-15.18457a4.0956,4.0956,0,0,0,0,8.18262,4.0956,4.0956,0,0,0,0-8.18262Z" transform="translate(7.86141)"/><path class="cls-20" d="M38.22412,275.3698H26.21484c-.61084,0-1.66943,0-1.66943-1.22168,0-1.26172,1.01807-1.26172,1.66943-1.26172h4.92578V260.3073H26.54053c-.61084,0-1.66944,0-1.66944-1.2627,0-1.2207,1.0586-1.2207,1.66944-1.2207h5.78076c1.38428,0,1.62842.40723,1.62842,1.66895V272.8864h4.27441c.61084,0,1.66943,0,1.66943,1.26172C39.89355,275.3698,38.835,275.3698,38.22412,275.3698Zm-6.147-20.5586a2.03564,2.03564,0,1,1,2.03515-2.03613A2.01576,2.01576,0,0,1,32.07715,254.8112Z" transform="translate(7.86141)"/><path class="cls-20" d="M54.22119,275.61394a6.39585,6.39585,0,0,1-4.72265-2.07617c0,1.01758,0,1.832-1.38428,1.832-1.42481,0-1.42481-.85449-1.42481-1.66895V252.97917h-1.832c-.56982,0-1.62793,0-1.62793-1.22168,0-1.26172,1.01758-1.26172,1.669-1.26172h2.97168c1.38427,0,1.62842.40723,1.62842,1.66895v7.40918a7.66412,7.66412,0,0,1,5.17041-1.99414c4.31543,0,7.93847,3.98926,7.93847,8.99707C62.60742,271.74675,58.65869,275.61394,54.22119,275.61394Zm.20361-15.55078a4.93936,4.93936,0,0,0-4.92626,4.55859v2.97266c0,1.9541,1.4248,5.53613,4.60058,5.53613,2.84961,0,5.69922-2.64551,5.69922-6.55371C59.79834,263.03484,57.437,260.06316,54.4248,260.06316Z" transform="translate(7.86141)"/><path class="cls-20" d="M75.062,275.61394a8.67078,8.67078,0,0,1-5.29248-1.54688c-.48828,1.50586-1.13965,1.54688-1.50635,1.54688-1.22119,0-1.22119-1.01758-1.22119-1.66895v-3.94922c0-.81347,0-1.66894,1.42481-1.66894,1.05859,0,1.22119.44824,1.4248,1.18066,1.01807,3.17578,3.29785,3.623,5.21094,3.623,3.70459,0,5.21094-1.34277,5.21094-2.84961,0-2.15723-3.25684-2.68652-5.25147-3.01269-3.7456-.56934-8.02-1.26172-8.02-5.00684,0-1.46582.93653-4.80371,7.73487-4.80371a9.95616,9.95616,0,0,1,4.356.85449c.08155-.28516.24463-.85449,1.22168-.85449,1.22119,0,1.22119,1.01758,1.22119,1.66894v2.8086c0,.81445,0,1.66894-1.4248,1.66894-1.26221,0-1.34375-.6914-1.38428-1.38379-.12207-1.05859-.69189-2.28027-4.07129-2.28027-3.86719,0-5.16992,1.2627-5.16992,2.32129,0,1.58691,2.76807,2.07617,3.94873,2.23828l2.76856.48926c1.30273.20312,6.5542,1.05859,6.5542,5.292C82.79688,272.235,81.49414,275.61394,75.062,275.61394Z" transform="translate(7.86141)"/><path class="cls-20" d="M96.14746,275.61394c-4.478,0-8.3457-3.86719-8.3457-9.03711,0-5.08887,3.78613-9.11914,8.3457-9.11914s8.3457,4.03027,8.3457,9.11914C104.49316,271.70574,100.626,275.61394,96.14746,275.61394Zm0-15.67383c-2.89014,0-5.53662,2.64649-5.53662,6.35156,0,3.78614,2.52393,6.83887,5.53662,6.83887s5.53662-3.05273,5.53662-6.83887C101.68408,262.5866,99.07861,259.94011,96.14746,259.94011Z" transform="translate(7.86141)"/><path class="cls-20" d="M126.06689,275.3698h-6.22851c-.57031,0-1.66943,0-1.66943-1.22168,0-1.26172,1.01806-1.26172,1.66943-1.26172h1.5874v-9.24121c0-2.44238-.56982-3.582-2.72754-3.582-2.07617,0-5.08886,1.54687-5.08886,5.61719v7.20605h1.7915c.65137,0,1.66894,0,1.66894,1.26172,0,1.22168-1.05859,1.22168-1.62841,1.22168h-6.47266c-.57031,0-1.62891,0-1.62891-1.22168,0-1.26172,1.01807-1.26172,1.66944-1.26172h1.791V260.3073h-1.83154c-.57031,0-1.62891,0-1.62891-1.22168,0-1.26172,1.01807-1.26172,1.66944-1.26172H111.981c1.62842,0,1.62842.61035,1.62842,1.91309a7.603,7.603,0,0,1,5.333-2.15723c3.21631,0,5.29248,1.75,5.29248,5.8623v9.44434h1.79151c.65136,0,1.66894,0,1.66894,1.26172C127.69531,275.3698,126.63672,275.3698,126.06689,275.3698Z" transform="translate(7.86141)"/><path class="cls-20" d="M145.60547,275.3698H132.21191c-.57031,0-1.62841,0-1.62841-1.22168,0-1.26172,1.01757-1.26172,1.66894-1.26172h5.25147V252.97917h-5.292c-.57031,0-1.62841,0-1.62841-1.22168,0-1.26172,1.01757-1.26172,1.66894-1.26172h6.43213c1.38428,0,1.62842.40723,1.62842,1.66895V272.8864h5.29248c.65137,0,1.62842,0,1.62842,1.26172C147.23389,275.3698,146.21631,275.3698,145.60547,275.3698Z" transform="translate(7.86141)"/><path class="cls-20" d="M168.68555,275.3698c-1.54688,0-3.501-.041-4.397-1.30274a11.36725,11.36725,0,0,1-5.94336,1.54688c-4.15283,0-6.71728-2.64649-6.71728-5.45508,0-3.9082,5.00732-5.94336,12.21289-6.06543,0-2.89062-2.1167-4.15332-5.21094-4.15332-.36621,0-.8955,0-1.46533.041-.81445.082-.855.12207-.855.44824a1.81251,1.81251,0,1,1-3.62305,0c0-2.97168,4.15235-2.97168,5.90284-2.97168,5.8623,0,8.06054,3.41894,8.06054,6.30957v8.79394a5.61128,5.61128,0,0,0,2.44287.3252c.61035,0,1.62842,0,1.62842,1.22168C170.72119,275.3698,169.8252,275.3698,168.68555,275.3698Zm-4.84473-8.875c-5.90283.16308-9.40381,1.66894-9.40381,3.66406,0,1.58789,1.669,2.97168,4.19287,2.97168a9.20393,9.20393,0,0,0,3.62354-.69238,2.26784,2.26784,0,0,0,1.5874-2.52344Z" transform="translate(7.86141)"/><path class="cls-20" d="M182.44336,275.61394a6.39587,6.39587,0,0,1-4.72266-2.07617c0,1.01758,0,1.832-1.38379,1.832-1.42529,0-1.42529-.85449-1.42529-1.66895V252.97917h-1.83154c-.57031,0-1.62891,0-1.62891-1.22168,0-1.26172,1.01807-1.26172,1.66944-1.26172h2.97168c1.38427,0,1.62841.40723,1.62841,1.66895v7.40918a7.66416,7.66416,0,0,1,5.17041-1.99414c4.31543,0,7.93848,3.98926,7.93848,8.99707C190.82959,271.74675,186.88086,275.61394,182.44336,275.61394Zm.20361-15.55078a4.93937,4.93937,0,0,0-4.92627,4.55859v2.97266c0,1.9541,1.42481,5.53613,4.60059,5.53613,2.84961,0,5.69922-2.64551,5.69922-6.55371C188.02051,263.03484,185.65918,260.06316,182.647,260.06316Z" transform="translate(7.86141)"/><path class="cls-20" d="M202.999,275.3698a2.54452,2.54452,0,1,1,2.56494-2.52442A2.54478,2.54478,0,0,1,202.999,275.3698Z" transform="translate(7.86141)"/><path class="cls-20" d="M230.55762,275.3698H218.54785c-.61035,0-1.66894,0-1.66894-1.22168,0-1.26172,1.01757-1.26172,1.66894-1.26172h4.92578V260.3073h-4.60058c-.61035,0-1.66895,0-1.66895-1.2627,0-1.2207,1.0586-1.2207,1.66895-1.2207h5.78125c1.38379,0,1.62793.40723,1.62793,1.66895V272.8864h4.27539c.61035,0,1.66894,0,1.66894,1.26172C232.22656,275.3698,231.168,275.3698,230.55762,275.3698Zm-6.14746-20.5586a2.03564,2.03564,0,1,1,2.03515-2.03613A2.01647,2.01647,0,0,1,224.41016,254.8112Z" transform="translate(7.86141)"/><path class="cls-20" d="M245.74023,275.61394c-4.47851,0-8.3457-3.86719-8.3457-9.03711,0-5.08887,3.78613-9.11914,8.3457-9.11914s8.34571,4.03027,8.34571,9.11914C254.08594,271.70574,250.21875,275.61394,245.74023,275.61394Zm0-15.67383c-2.89062,0-5.53613,2.64649-5.53613,6.35156,0,3.78614,2.52344,6.83887,5.53613,6.83887s5.53711-3.05273,5.53711-6.83887C251.27734,262.5866,248.67188,259.94011,245.74023,259.94011Z" transform="translate(7.86141)"/></svg>